<svg width="26" height="28" viewBox="0 0 26 28" fill="none" xmlns="http://www.w3.org/2000/svg">
    <path d="M25.8569 20.3787C25.8569 22.0494 24.5023 23.4039 22.8317 23.4039H3.16779C1.49712 23.4039 0.142578 22.0494 0.142578 20.3787V5.48938C0.142578 3.81871 4.52233 0.714844 6.193 0.714844H21.7917C24.1317 0.714844 25.8569 2.46342 25.8569 4.77997V20.3787Z" fill="#A0041E"/>
    <path d="M24.3453 23.4033C24.3453 25.074 22.9908 26.4285 21.3201 26.4285H4.68146C3.01079 26.4285 1.65625 25.074 1.65625 23.4033V5.25204C1.65625 2.13683 1.64037 2.22683 5.43776 2.22683H21.3201C22.9908 2.22683 24.3453 3.58137 24.3453 5.25204V23.4033Z" fill="#CCD6DD"/>
    <path d="M22.8317 24.1604C22.8317 25.4136 21.8159 26.4293 20.5627 26.4293H2.41149C1.15829 26.4293 0.142578 25.4136 0.142578 24.1604V6.00914C0.142578 4.75595 1.15829 3.74023 2.41149 3.74023H20.5627C21.8159 3.74023 22.8317 4.75595 22.8317 6.00914V24.1604Z" fill="#E1E8ED"/>
    <path d="M22.8312 24.9168C22.8312 26.5875 21.4767 27.942 19.806 27.942H3.92365C2.25298 27.942 0.898438 26.5875 0.898438 24.9168V8.27814C0.898438 6.60747 2.25298 5.25293 3.92365 5.25293H19.806C21.4767 5.25293 22.8312 6.60747 22.8312 8.27814V24.9168Z" fill="#BE1931"/>
    <path d="M21.3186 24.9169C21.3186 26.5876 19.9641 27.9421 18.2934 27.9421H3.92365C2.25298 27.9421 0.898438 26.5876 0.898438 24.9169V9.79083C0.898438 8.12016 2.25298 6.76562 3.92365 6.76562H18.5468C20.2174 6.76562 21.3186 7.8668 21.3186 9.53747V24.9169Z" fill="#DD2E44"/>
    <path d="M3.92409 5.25266C2.64745 5.25266 2.61493 3.79905 3.16779 3.17283C3.79703 2.46115 4.77493 2.22745 6.52426 2.22745H7.7056V0.714844H5.64922C2.64745 0.714844 0.142578 2.6056 0.142578 4.77997V24.9165C0.142578 26.5872 1.49712 27.9417 3.16779 27.9417H4.68039V5.25266H3.92409Z" fill="#A0041E"/>
</svg>
